<svg width="50" height="50" viewBox="0 0 50 50" fill="none" xmlns="http://www.w3.org/2000/svg">
<path d="M0 4.6875C0 3.82456 0.699555 3.125 1.5625 3.125H6.25C6.96698 3.125 7.59195 3.61296 7.76585 4.30854L9.03246 9.375H45.3125C45.7773 9.375 46.218 9.58195 46.5149 9.93963C46.8117 10.2973 46.9339 10.7686 46.8482 11.2255L42.1607 36.2255C42.0222 36.9645 41.3769 37.5 40.625 37.5H37.5H15.625H12.5C11.7481 37.5 11.1028 36.9645 10.9643 36.2255L6.28535 11.2713L5.03004 6.25H1.5625C0.699555 6.25 0 5.55044 0 4.6875ZM9.6952 12.5L13.7968 34.375H39.3282L43.4298 12.5H9.6952ZM15.625 37.5C12.1732 37.5 9.375 40.2982 9.375 43.75C9.375 47.2018 12.1732 50 15.625 50C19.0768 50 21.875 47.2018 21.875 43.75C21.875 40.2982 19.0768 37.5 15.625 37.5ZM37.5 37.5C34.0482 37.5 31.25 40.2982 31.25 43.75C31.25 47.2018 34.0482 50 37.5 50C40.9518 50 43.75 47.2018 43.75 43.75C43.75 40.2982 40.9518 37.5 37.5 37.5ZM15.625 40.625C17.3509 40.625 18.75 42.0241 18.75 43.75C18.75 45.4759 17.3509 46.875 15.625 46.875C13.8991 46.875 12.5 45.4759 12.5 43.75C12.5 42.0241 13.8991 40.625 15.625 40.625ZM37.5 40.625C39.2259 40.625 40.625 42.0241 40.625 43.75C40.625 45.4759 39.2259 46.875 37.5 46.875C35.7741 46.875 34.375 45.4759 34.375 43.75C34.375 42.0241 35.7741 40.625 37.5 40.625Z" fill="black"/>
</svg>
